<svg xmlns="http://www.w3.org/2000/svg" viewBox="0 0 491.66 356.13"><defs><style>.cls-1{fill:#485ea1;}.cls-2,.cls-4{fill:#f7f7f7;}.cls-2{stroke:#647cb9;stroke-miterlimit:10;}.cls-3{fill:#243771;}</style></defs><g id="Layer_3" data-name="Layer 3"><path class="cls-1" d="M449.75,167.25c0,80.68-75.2,130.83-169.49,156.65-53.65,14.69-126.44,10.32-127.08,7.77-.79-3.16,55.82-35.41,42.83-43.29-43.29-26.25-71.75-70.71-71.75-121.13,0-80.68,72.86-146.08,162.74-146.08S449.75,86.57,449.75,167.25Z"/></g><g id="Layer_2" data-name="Layer 2"><path class="cls-2" d="M444.35,158c0,80.68-75.19,130.84-169.48,156.65-53.66,14.69-129.51,13.46-131.23,11.46-.7-.82,60-39.1,47-47-43.29-26.25-71.76-70.71-71.76-121.13,0-80.68,72.87-146.08,162.75-146.08S444.35,77.32,444.35,158Z"/><path class="cls-3" d="M256.71,1.5c-99.7,0-180.53,69.42-180.53,155,0,53.52,31.57,100.7,79.6,128.56,14.4,8.36-52.82,69.73-52,70.61,1.9,2.12,80.72-3.33,141.24-24.55,102.12-35.8,192.27-89,192.27-174.62S356.42,1.5,256.71,1.5Zm-2.54,306.28c-55.53,20.24-112,33.47-113.68,31.56-.71-.78,59.19-52,41.44-60.52-45.21-21.62-87.7-72.88-87.7-121C94.23,80.71,167,18.24,256.71,18.24S419.19,80.71,419.19,157.77,345.68,274.41,254.17,307.78Z"/><path class="cls-4" d="M377.53,148.34c0,80.68-13.64,113.48-104,150.82-85.7,35.43-127.12,28.61-128.83,26.61-.7-.82,60-39.1,47-47-43.29-26.25-71.76-70.71-71.76-121.13,0-80.68,58-116.74,147.89-116.74S377.53,67.66,377.53,148.34Z"/></g><g id="Layer_4" data-name="Layer 4"><polygon class="cls-1" points="4.11 75.18 18.19 42.32 75.69 93.96 4.11 75.18"/><polygon class="cls-4" points="0 69.31 14.08 36.46 71.58 88.09 0 69.31"/><polygon class="cls-1" points="380.87 0.76 379.34 29.04 389.27 0 380.87 0.76"/><polygon class="cls-3" points="373.22 310.23 366.35 326.27 385.45 325.51 387.74 308.7 373.22 310.23"/><polygon class="cls-3" points="75.99 261.32 56.89 271.26 61.47 278.9 89.74 272.02 75.99 261.32"/><polygon class="cls-1" points="46.95 182.62 7.98 191.03 7.98 177.27 43.9 176.51 46.95 182.62"/><line class="cls-1" x1="482.49" y1="184.91" x2="489.37" y2="176.51"/><polygon class="cls-1" points="473.32 164.28 491.66 184.15 490.13 191.03 467.97 173.45 473.32 164.28"/><polygon class="cls-1" points="382.39 82.52 368.64 92.46 378.57 96.28 387.74 89.4 382.39 82.52"/><polygon class="cls-3" points="109.61 138.3 108.84 149 131 145.94 109.61 138.3"/></g></svg>